<svg width="20" height="21" viewBox="0 0 20 21" fill="none" xmlns="http://www.w3.org/2000/svg">
<path d="M1.66669 11.1759H15.8334" stroke="white" stroke-width="1.5" stroke-miterlimit="10" stroke-linecap="round" stroke-linejoin="round"/>
<path d="M15.8334 9.23428V15.1926C15.8084 17.5676 15.1583 18.1676 12.6833 18.1676H4.81671C2.30004 18.1676 1.66669 17.5426 1.66669 15.0593V9.23428C1.66669 6.98428 2.19169 6.25928 4.16669 6.14261C4.36669 6.13428 4.58338 6.12595 4.81671 6.12595H12.6833C15.2 6.12595 15.8334 6.75095 15.8334 9.23428Z" stroke="white" stroke-width="1.5" stroke-linecap="round" stroke-linejoin="round"/>
<path d="M18.3334 6.27594V12.1009C18.3334 14.3509 17.8084 15.0759 15.8334 15.1926V9.23427C15.8334 6.75094 15.2 6.12594 12.6833 6.12594H4.81671C4.58338 6.12594 4.36669 6.13427 4.16669 6.1426C4.19169 3.7676 4.84171 3.1676 7.31671 3.1676H15.1833C17.7 3.1676 18.3334 3.7926 18.3334 6.27594Z" stroke="white" stroke-width="1.5" stroke-linecap="round" stroke-linejoin="round"/>
<path d="M4.375 15.5093H5.80831" stroke="white" stroke-width="1.5" stroke-miterlimit="10" stroke-linecap="round" stroke-linejoin="round"/>
<path d="M7.59167 15.5093H10.4583" stroke="white" stroke-width="1.5" stroke-miterlimit="10" stroke-linecap="round" stroke-linejoin="round"/>
</svg>
