<svg width="20" height="21" viewBox="0 0 20 21" fill="none" xmlns="http://www.w3.org/2000/svg">
<path d="M2.50836 9.68253V13.4242C2.50836 17.1659 4.00836 18.6659 7.75003 18.6659H12.2417C15.9834 18.6659 17.4834 17.1659 17.4834 13.4242V9.68253" stroke="white" stroke-width="1.5" stroke-linecap="round" stroke-linejoin="round"/>
<path d="M9.99999 10.3325C11.525 10.3325 12.65 9.09084 12.5 7.56584L11.95 1.99918H8.05832L7.49999 7.56584C7.34999 9.09084 8.47499 10.3325 9.99999 10.3325Z" stroke="white" stroke-width="1.5" stroke-linecap="round" stroke-linejoin="round"/>
<path d="M15.2584 10.3325C16.9417 10.3325 18.175 8.96584 18.0084 7.29084L17.775 4.99918C17.475 2.83251 16.6417 1.99918 14.4584 1.99918H11.9167L12.5 7.84084C12.6417 9.21584 13.8834 10.3325 15.2584 10.3325Z" stroke="white" stroke-width="1.5" stroke-linecap="round" stroke-linejoin="round"/>
<path d="M4.70002 10.3325C6.07502 10.3325 7.31669 9.21584 7.45002 7.84084L7.63336 5.99918L8.03336 1.99918H5.49169C3.30836 1.99918 2.47502 2.83251 2.17502 4.99918L1.95002 7.29084C1.78336 8.96584 3.01669 10.3325 4.70002 10.3325Z" stroke="white" stroke-width="1.5" stroke-linecap="round" stroke-linejoin="round"/>
<path d="M10 14.4992C8.60835 14.4992 7.91669 15.1908 7.91669 16.5825V18.6658H12.0834V16.5825C12.0834 15.1908 11.3917 14.4992 10 14.4992Z" stroke="white" stroke-width="1.5" stroke-linecap="round" stroke-linejoin="round"/>
</svg>
