<svg width="20" height="20" viewBox="0 0 20 20" fill="none" xmlns="http://www.w3.org/2000/svg">
<path d="M10.7666 1.88333L16.1916 4.80833C16.825 5.14999 16.825 6.12499 16.1916 6.46666L10.7666 9.39166C10.2833 9.64999 9.71665 9.64999 9.23331 9.39166L3.80831 6.46666C3.17498 6.12499 3.17498 5.14999 3.80831 4.80833L9.23331 1.88333C9.71665 1.62499 10.2833 1.62499 10.7666 1.88333Z" stroke="white" stroke-width="1.5" stroke-linecap="round" stroke-linejoin="round"/>
<path d="M3.00835 8.44167L8.05002 10.9667C8.67502 11.2833 9.07502 11.925 9.07502 12.625V17.3917C9.07502 18.0833 8.35002 18.525 7.73335 18.2167L2.69169 15.6917C2.06669 15.375 1.66669 14.7333 1.66669 14.0333V9.26667C1.66669 8.575 2.39169 8.13333 3.00835 8.44167Z" stroke="white" stroke-width="1.5" stroke-linecap="round" stroke-linejoin="round"/>
<path d="M16.9917 8.44167L11.95 10.9667C11.325 11.2833 10.925 11.925 10.925 12.625V17.3917C10.925 18.0833 11.65 18.525 12.2667 18.2167L17.3083 15.6917C17.9333 15.375 18.3333 14.7333 18.3333 14.0333V9.26667C18.3333 8.575 17.6083 8.13333 16.9917 8.44167Z" stroke="white" stroke-width="1.5" stroke-linecap="round" stroke-linejoin="round"/>
</svg>
